<?xml version="1.0" encoding="utf-8"?>
<!-- Generator: Adobe Illustrator 19.0.0, SVG Export Plug-In . SVG Version: 6.00 Build 0)  -->
<svg version="1.1" id="Capa_1" xmlns="http://www.w3.org/2000/svg" xmlns:xlink="http://www.w3.org/1999/xlink" x="0px" y="0px"
	 viewBox="0 0 595.3 841.9" style="enable-background:new 0 0 595.3 841.9;" xml:space="preserve">
<style type="text/css">
	.st0{fill:none;stroke:#010202;stroke-width:3.5;stroke-linecap:round;stroke-linejoin:round;stroke-miterlimit:10;}
</style>
<g id="XMLID_1_">
	<g id="LWPOLYLINE_1_">
		<path id="XMLID_3_" class="st0" d="M223.5,332.9c1.5,1.9,1.1,4.7-0.8,6.2s-4.7,1.1-6.2-0.8l-18.8-24.5c-0.7-0.9-2.1-1.1-3-0.4
			c-0.9,0.7-1.1,2.1-0.4,3l16.6,21.7c1.8,2.3,1.3,5.7-1,7.5c-2.3,1.8-5.7,1.3-7.5-1l-19.1-25c-0.7-0.9-2.1-1.1-3-0.4
			c-0.9,0.7-1.1,2.1-0.4,3l18.3,23.9c3.1,4.4,8.8,6.1,13.7,4c4.6-2,10-0.1,12.3,4.3c0.2,0.4,0.3,0.8,0.4,1.3
			c0.3,2.2-1.2,4.2-3.4,4.6l-84.8,20c-1.7,0.4-2.8,2.1-2.4,3.8c0.4,1.7,2.1,2.8,3.8,2.4l64.9-15.3c2.7-0.6,5.4,1,6,3.7
			c0.6,2.7-1,5.4-3.7,6l-99.3,23.4c-1.7,0.4-2.8,2.1-2.4,3.8s2.1,2.8,3.8,2.4l104-24.5c2.5-0.6,5,1,5.5,3.4s-1,5-3.4,5.5L24.1,439.5
			c-1.7,0.4-2.8,2.1-2.4,3.8c0.4,1.7,2.1,2.8,3.8,2.4l194.3-45.8c2.1-0.5,4.1,0.8,4.6,2.9c0.5,2.1-0.8,4.1-2.9,4.6L112,433.3
			c-1.7,0.4-2.8,2.1-2.4,3.8s2.1,2.8,3.8,2.4l112-26.4c1.8-0.4,3.7,0.7,4.1,2.5c0.4,1.8-0.7,3.7-2.5,4.1l-70.8,16.7
			c-1.7,0.4-2.8,2.1-2.4,3.8c0.4,1.7,2.1,2.8,3.8,2.4l98.9-23.3c0.2,0,0.4-0.1,0.5-0.1c2.2-0.2,4.1,1.4,4.3,3.6
			c0.3,1.9-0.8,3.7-2.5,4.5c-7.3,3.3-12.5,10.2-13.5,18.2c-0.5,2.7,1.3,5.2,3.9,5.7c2.7,0.5,5.2-1.3,5.7-3.9
			c0.1-0.3,0.1-0.6,0.1-0.8c-0.7-5.2,1.1-10.4,4.9-14c0.7-0.5,1.6-0.7,2.5-0.6c2,0.2,3.5,2.1,3.2,4.1c-0.1,6.1-1.8,12-4.7,17.2
			c-0.8,1.7-0.1,3.8,1.7,4.7c1.7,0.8,3.8,0.1,4.7-1.7c0.2-0.4,0.3-0.9,0.3-1.3l1.9-8.3c0.8-3.4,4.2-5.5,7.6-4.8s5.5,4.2,4.8,7.6
			l-2.1,9.4c-0.4,1.9,0.8,3.8,2.7,4.2c1.9,0.4,3.8-0.8,4.2-2.7l4.2-18.3c0.2-1.1,0.1-2.2-0.4-3.1l-16.7-30.1c-1-1.9-0.4-4.3,1.5-5.3
			l10-5.6c3.1-1.7,7-0.7,8.9,2.3l30.6,48.9c0.7,1.1,2.1,1.4,3.2,0.7c1.1-0.7,1.4-2.1,0.7-3.2L292,388.4c-1.7-2.8-0.9-6.4,1.9-8.1
			c2.8-1.7,6.4-0.9,8.1,1.9l61.4,98.3c0.7,1.1,2.1,1.4,3.2,0.7c1.1-0.7,1.4-2.1,0.7-3.2l-57.1-91.3c-1.4-2.3-0.7-5.3,1.6-6.7
			s5.3-0.7,6.7,1.6l90.8,145.3c0.7,1.1,2.1,1.4,3.2,0.7s1.4-2.1,0.7-3.2L321.1,377c-1.5-2.7-1.4-6,0.3-8.6
			c5.2-8.6,12.6-15.6,21.5-20.3c2.9-1.9,5.4-4.4,7.2-7.3c1.7-2.9,2-6.5,0.7-9.6l230-87.1c1.2-0.5,1.9-1.9,1.4-3.1
			c-0.5-1.2-1.9-1.9-3.1-1.4L348.4,327c-3.4-3.1-7.4-5.2-11.9-6.4c-7.7-1.9-15.6,2.3-18.4,9.7c-1.2,1.9-3,3.2-5.1,3.9
			c-4.9,1.5-10-1.3-11.5-6.1l-44-132c-0.7-2-2.9-3.1-4.9-2.5s-3.1,2.9-2.5,4.9L292,324.4c1.3,3.9-0.8,8.2-4.8,9.5s-8.2-0.8-9.5-4.8
			L249,242.9c-0.7-2-2.9-3.1-4.9-2.5s-3.1,2.9-2.5,4.9l28.7,86.2c1.3,3.9-0.8,8.2-4.8,9.5c-3.9,1.3-8.2-0.8-9.5-4.8l-20-59.9
			c-0.7-2-2.9-3.1-4.9-2.5c-2,0.7-3.1,2.9-2.5,4.9l20,59.9c1.3,3.9-0.8,8.2-4.8,9.5c-3.9,1.3-8.2-0.8-9.5-4.8
			c-6.6-13.7-16-26-27.6-36c-0.9-0.8-2.2-0.7-3,0.2c-0.8,0.9-0.7,2.2,0.2,3c7.6,6.6,14.3,14.2,19.8,22.6"/>
	</g>
</g>
</svg>
